<svg width="32" height="32" viewBox="0 0 32 32" fill="none" xmlns="http://www.w3.org/2000/svg">
<circle cx="16" cy="16" r="16" fill="#F7F6FB"/>
<mask id="mask0_3510_8355" style="mask-type:alpha" maskUnits="userSpaceOnUse" x="0" y="0" width="32" height="32">
<circle cx="16.0001" cy="16.0001" r="15.4783" fill="white" stroke="#E8EAF1" stroke-width="0.347826"/>
</mask>
<g mask="url(#mask0_3510_8355)">
<path d="M16.0001 36.0268C23.2999 36.0268 29.2175 32.2359 29.2175 27.5596C29.2175 22.8834 23.2999 19.0925 16.0001 19.0925C8.70034 19.0925 2.78271 22.8834 2.78271 27.5596C2.78271 32.2359 8.70034 36.0268 16.0001 36.0268Z" fill="#D7D9DF"/>
</g>
<path d="M15.9999 17.019C18.6893 17.019 20.8695 14.8528 20.8695 12.1806C20.8695 9.50849 18.6893 7.34229 15.9999 7.34229C13.3106 7.34229 11.1304 9.50849 11.1304 12.1806C11.1304 14.8528 13.3106 17.019 15.9999 17.019Z" fill="#D7D9DF"/>
</svg>
